<svg viewBox="0 0 12 14" xmlns="http://www.w3.org/2000/svg"><path fill-rule="evenodd" clip-rule="evenodd" d="M7.318.9a.754.754 0 0 1 .478.398c.363.74.633 1.19.906 1.554.275.37.567.671 1.01 1.124a5.402 5.402 0 0 1 1.538 3.79c0 1.37-.513 2.743-1.538 3.79a5.175 5.175 0 0 1-7.424 0A5.403 5.403 0 0 1 .75 7.765c0-1.37.513-2.744 1.538-3.79a.739.739 0 0 1 .817-.166c.28.119.463.398.463.707 0 .858.052 1.511.298 2.032.135.287.346.567.709.817.087-.812.246-1.802.46-2.741.17-.74.38-1.478.63-2.093.125-.308.266-.602.427-.855.157-.246.358-.497.617-.673.179-.122.4-.16.609-.103Zm.273 10.021a2.218 2.218 0 0 1-3.182 0 2.314 2.314 0 0 1-.659-1.624s.659.383 1.875.383c0-.766.375-3.063.938-3.446.375.766.589.99 1.028 1.439a2.31 2.31 0 0 1 .659 1.624c0 .588-.22 1.175-.659 1.624Z" fill="#F94C16"/></svg>